<svg width="22" height="22" viewBox="0 0 22 22" fill="none" xmlns="http://www.w3.org/2000/svg">
<path d="M10.9097 0C7.94703 0 7.57523 0.0129548 6.41162 0.0659093C5.2503 0.119091 4.45759 0.302955 3.76398 0.572727C3.0465 0.851364 2.43788 1.22409 1.83154 1.83068C1.22474 2.43705 0.852019 3.04568 0.572482 3.76295C0.302036 4.45682 0.117951 5.24977 0.0656797 6.41068C0.0136358 7.57432 0 7.94636 0 10.9091C0 13.8718 0.0131816 14.2425 0.0659073 15.4061C0.119315 16.5675 0.303173 17.3602 0.57271 18.0539C0.851565 18.7714 1.22428 19.38 1.83085 19.9864C2.43697 20.5932 3.04559 20.9668 3.76261 21.2455C4.45668 21.5152 5.24961 21.6991 6.41071 21.7523C7.57432 21.8052 7.9459 21.8182 10.9083 21.8182C13.8712 21.8182 14.2418 21.8052 15.4054 21.7523C16.5668 21.6991 17.3604 21.5152 18.0545 21.2455C18.7717 20.9668 19.3794 20.5932 19.9855 19.9864C20.5923 19.38 20.965 18.7714 21.2446 18.0541C21.5128 17.3602 21.6968 16.5673 21.7514 15.4064C21.8037 14.2427 21.8173 13.8718 21.8173 10.9091C21.8173 7.94636 21.8037 7.57454 21.7514 6.41091C21.6968 5.24954 21.5128 4.45682 21.2446 3.76318C20.965 3.04568 20.5923 2.43705 19.9855 1.83068C19.3787 1.22386 18.7719 0.851136 18.0538 0.572727C17.3583 0.302955 16.5652 0.119091 15.4039 0.0659093C14.2402 0.0129548 13.8698 0 10.9063 0H10.9097ZM9.93106 1.96591C10.2215 1.96545 10.5456 1.96591 10.9097 1.96591C13.8223 1.96591 14.1675 1.97636 15.3177 2.02864C16.3813 2.07727 16.9586 2.255 17.3431 2.40432C17.8522 2.60205 18.2151 2.83841 18.5967 3.22023C18.9785 3.60204 19.2149 3.96568 19.413 4.47477C19.5624 4.85886 19.7403 5.43614 19.7887 6.49977C19.841 7.64977 19.8524 7.99523 19.8524 10.9066C19.8524 13.818 19.841 14.1634 19.7887 15.3134C19.7401 16.377 19.5624 16.9543 19.413 17.3384C19.2153 17.8475 18.9785 18.21 18.5967 18.5916C18.2149 18.9734 17.8524 19.2098 17.3431 19.4075C16.959 19.5575 16.3813 19.7348 15.3177 19.7834C14.1678 19.8357 13.8223 19.847 10.9097 19.847C7.9968 19.847 7.65159 19.8357 6.50162 19.7834C5.43802 19.7343 4.86076 19.5566 4.476 19.4073C3.96693 19.2095 3.6033 18.9732 3.22149 18.5914C2.83969 18.2095 2.60333 17.8468 2.40515 17.3375C2.25584 16.9534 2.07789 16.3761 2.02948 15.3125C1.97721 14.1625 1.96676 13.817 1.96676 10.9039C1.96676 7.99068 1.97721 7.64705 2.02948 6.49705C2.07812 5.43341 2.25584 4.85614 2.40515 4.47159C2.60288 3.9625 2.83969 3.59886 3.22149 3.21704C3.6033 2.83523 3.96693 2.59886 4.476 2.40068C4.86053 2.25068 5.43802 2.07341 6.50162 2.02455C7.50795 1.97909 7.89794 1.96545 9.93106 1.96318V1.96591ZM16.7327 3.77727C16.01 3.77727 15.4236 4.36295 15.4236 5.08591C15.4236 5.80864 16.01 6.395 16.7327 6.395C17.4554 6.395 18.0417 5.80864 18.0417 5.08591C18.0417 4.36318 17.4554 3.77682 16.7327 3.77682V3.77727ZM10.9097 5.30682C7.8159 5.30682 5.30757 7.81523 5.30757 10.9091C5.30757 14.003 7.8159 16.5102 10.9097 16.5102C14.0034 16.5102 16.5109 14.003 16.5109 10.9091C16.5109 7.81523 14.0032 5.30682 10.9094 5.30682H10.9097ZM10.9097 7.27273C12.9178 7.27273 14.5459 8.90068 14.5459 10.9091C14.5459 12.9173 12.9178 14.5455 10.9097 14.5455C8.90132 14.5455 7.27342 12.9173 7.27342 10.9091C7.27342 8.90068 8.90132 7.27273 10.9097 7.27273V7.27273Z" fill="#2677BC"/>
</svg>
