<svg width="23" height="23" viewBox="0 0 23 23" fill="none" xmlns="http://www.w3.org/2000/svg">
<path fill-rule="evenodd" clip-rule="evenodd" d="M11.856 0.0138441C14.642 0.150767 17.2381 1.29964 19.2209 3.28378C21.3359 5.40011 22.5 8.21328 22.4989 11.205C22.4964 17.3786 17.4705 22.4017 11.2966 22.4017C8.97485 22.4017 7.12988 21.6883 5.93857 21.0388L0 22.5958L1.5893 16.7937C0.608968 15.0957 0.0931226 13.1695 0.093931 11.1961C0.09641 5.02263 5.1218 0 11.2964 0L11.856 0.0138441ZM6.21369 19.0118L6.55374 19.2135C7.98331 20.0614 9.62197 20.5101 11.2928 20.5107H11.2965C16.4285 20.5107 20.6054 16.3358 20.6074 11.2043C20.6084 8.71767 19.6408 6.37947 17.8829 4.62043C16.1249 2.86127 13.7872 1.89193 11.3002 1.89112C6.16432 1.89112 1.98739 6.0656 1.98534 11.1967C1.98464 12.9552 2.47688 14.6678 3.40893 16.1494L3.63031 16.5016L2.6897 19.9358L6.21369 19.0118ZM16.9402 13.8675C16.8703 13.7507 16.6837 13.6808 16.4038 13.5407C16.1239 13.4007 14.7477 12.7239 14.4911 12.6304C14.2346 12.5372 14.0479 12.4905 13.8614 12.7705C13.6748 13.0506 13.1384 13.6808 12.975 13.8675C12.8118 14.0542 12.6485 14.0776 12.3686 13.9375C12.0887 13.7976 11.1868 13.502 10.1177 12.5489C9.28553 11.807 8.72377 10.8909 8.56048 10.6108C8.39724 10.3308 8.54307 10.1793 8.68319 10.0399C8.80913 9.91447 8.96315 9.71308 9.10311 9.54971C9.24306 9.38639 9.28968 9.26961 9.38302 9.08297C9.4763 8.89622 9.42963 8.73291 9.35968 8.59286C9.28968 8.45276 8.72991 7.07566 8.49667 6.51548C8.26941 5.96999 8.03865 6.04384 7.86685 6.03522C7.70377 6.02714 7.51699 6.02537 7.33042 6.02537C7.14379 6.02537 6.84055 6.09534 6.58397 6.37548C6.3274 6.65552 5.60429 7.33244 5.60429 8.70942C5.60429 10.0866 6.60731 11.4168 6.74726 11.6036C6.88722 11.7904 8.72102 14.6161 11.5289 15.828C12.1967 16.1163 12.7181 16.2884 13.1246 16.4173C13.7952 16.6303 14.4053 16.6003 14.8877 16.5282C15.4254 16.4479 16.5437 15.8514 16.777 15.198C17.0102 14.5443 17.0102 13.9842 16.9402 13.8675Z" fill="#2677BC"/>
</svg>
